<svg xmlns="http://www.w3.org/2000/svg" width={16} height={16} viewBox="0 0 16 16"><g fill="none"><path fill="url(#SVGF1LxQugg)" d="m4.5 11l3.5-.5l3.5.5h.264c.155 0 .308.036.447.106l1.342.67A.81.81 0 0 1 14 12.5H2a.81.81 0 0 1 .447-.724l1.342-.67A1 1 0 0 1 4.236 11z"></path><path fill="url(#SVGtJd7TcvI)" d="M2.5 12a.5.5 0 0 0 0 1h11a.5.5 0 0 0 0-1z"></path><path fill="url(#SVG4p4DPZRY)" d="M3 5.5A1.5 1.5 0 0 1 4.5 4h7A1.5 1.5 0 0 1 13 5.5v4a1.5 1.5 0 0 1-1.5 1.5h-7A1.5 1.5 0 0 1 3 9.5z"></path><defs><linearGradient id="SVGF1LxQugg" x1={14} x2={12.951} y1={12.976} y2={8.257} gradientUnits="userSpaceOnUse"><stop stopColor="#63686e"></stop><stop offset={1} stopColor="#889096"></stop></linearGradient><linearGradient id="SVGtJd7TcvI" x1={14} x2={13.846} y1={12.929} y2={11.084} gradientUnits="userSpaceOnUse"><stop stopColor="#889096"></stop><stop offset={1} stopColor="#aab3bd"></stop></linearGradient><linearGradient id="SVG4p4DPZRY" x1={10} x2={10.408} y1={4} y2={12.007} gradientUnits="userSpaceOnUse"><stop stopColor="#6ce0ff"></stop><stop offset={1} stopColor="#4894fe"></stop></linearGradient></defs></g></svg>